# xmcd
#
# Track frame offsets:
#	150
#	18960
#	34745
#	58660
#	76645
#	91575
#	108939
#	125862
#	144693
#	163734
#
# Disc length: 2408 seconds
#
# Revision: 0
# Processed by: cddbd v1.5.1PL2 Copyright (c) Steve Scherf et al.
# Submitted via: audiograbber 1.83.01
#
DISCID=7809660a
DTITLE=Kenny Rogers  - Water and Bridges
DYEAR=2006
DGENRE=Country
TTITLE0=Water and Bridges - 01 - Water and Bridges
TTITLE1=Water and Bridges - 02 - Someone Is Me
TTITLE2=Water and Bridges - 03 - Someone Somewhere Tonight
TTITLE3=Water and Bridges - 05 - Calling Me
TTITLE4=Water and Bridges - 06 - Half A Man
TTITLE5=Water and Bridges - 07 - I Can Feel You Drifting
TTITLE6=Water and Bridges - 08 - The Last Ten Years (Superman)
TTITLE7=Water and Bridges - 09 - You'll Know Love
TTITLE8=Water and Bridges - 10 - My Petition
TTITLE9=Water and Bridges - 11 - One Life
EXTD=
EXTT0=
EXTT1=
EXTT2=
EXTT3=
EXTT4=
EXTT5=
EXTT6=
EXTT7=
EXTT8=
EXTT9=
PLAYORDER=
